<svg width="1024" height="1024" viewBox="0 0 1024 1024" fill="none" xmlns="http://www.w3.org/2000/svg">
  <rect width="1024" height="1024" rx="230" fill="#F7F2EB"/>
  <rect x="278" y="278" width="468" height="468" rx="156" fill="#F0E5D1"/>
  <path d="M512 637C508 637 503 635 500 632C458 595 430 570 411 551C357 499 346 465 346 429C346 368 392 324 452 324C487 324 520 340 541 366C562 340 595 324 630 324C690 324 736 368 736 429C736 465 725 499 671 551C652 570 624 595 582 632C579 635 574 637 570 637H512Z" fill="#E0B15B"/>
</svg>
